<svg width="24" height="24" viewBox="0 0 24 24" fill="none" xmlns="http://www.w3.org/2000/svg">
<path d="M18.625 7.875H5.375C5.15625 7.875 5 7.71875 5 7.5V6.5C5 6.3125 5.15625 6.125 5.375 6.125H18.625C18.8125 6.125 19 6.3125 19 6.5V7.5C19 7.71875 18.8125 7.875 18.625 7.875ZM18.625 12.875H5.375C5.15625 12.875 5 12.7188 5 12.5V11.5C5 11.3125 5.15625 11.125 5.375 11.125H18.625C18.8125 11.125 19 11.3125 19 11.5V12.5C19 12.7188 18.8125 12.875 18.625 12.875ZM18.625 17.875H5.375C5.15625 17.875 5 17.7188 5 17.5V16.5C5 16.3125 5.15625 16.125 5.375 16.125H18.625C18.8125 16.125 19 16.3125 19 16.5V17.5C19 17.7188 18.8125 17.875 18.625 17.875Z" fill="#181818"/>
</svg>
