<svg width="24" height="24" viewBox="0 0 24 24" fill="none" xmlns="http://www.w3.org/2000/svg">
<path d="M13.4688 12L16.8438 15.375C17.0312 15.5625 17.0312 15.9062 16.8438 16.0938L16.0625 16.875C15.875 17.0625 15.5312 17.0625 15.3438 16.875L12 13.5L8.625 16.875C8.4375 17.0625 8.09375 17.0625 7.90625 16.875L7.125 16.0938C6.9375 15.9062 6.9375 15.5625 7.125 15.375L10.5 12L7.125 8.65625C6.9375 8.46875 6.9375 8.125 7.125 7.9375L7.90625 7.15625C8.09375 6.96875 8.4375 6.96875 8.625 7.15625L12 10.5312L15.3438 7.15625C15.5312 6.96875 15.875 6.96875 16.0625 7.15625L16.8438 7.9375C17.0312 8.125 17.0312 8.46875 16.8438 8.65625L13.4688 12Z" fill="#939393"/>
</svg>
