<svg width="24" height="24" viewBox="0 0 24 24" fill="none" xmlns="http://www.w3.org/2000/svg">
<path d="M15.25 16.9062L12.25 19.9062C12.0937 20.0625 11.875 20.0625 11.7187 19.9062L8.71875 16.9062C8.5625 16.75 8.5625 16.5 8.71875 16.375L9.34375 15.75C9.46875 15.5938 9.71875 15.5938 9.875 15.75L11.1875 17.1562H11.25L11.25 12.75H6.84375V12.8125L8.25 14.125C8.40625 14.2812 8.40625 14.5312 8.25 14.6562L7.625 15.2812C7.5 15.4375 7.25 15.4375 7.09375 15.2812L4.09375 12.2812C3.9375 12.125 3.9375 11.9062 4.09375 11.75L7.09375 8.75C7.25 8.59375 7.5 8.59375 7.625 8.75L8.25 9.375C8.40625 9.5 8.40625 9.75 8.25 9.90625L6.84375 11.1875V11.25H11.25V6.875H11.1875L9.875 8.28125C9.71875 8.4375 9.46875 8.4375 9.34375 8.28125L8.71875 7.65625C8.5625 7.53125 8.5625 7.28125 8.71875 7.125L11.7188 4.125C11.875 3.96875 12.0938 3.96875 12.25 4.125L15.25 7.125C15.4062 7.28125 15.4062 7.53125 15.25 7.65625L14.625 8.28125C14.5 8.4375 14.25 8.4375 14.0938 8.28125L12.8125 6.875H12.75V11.25L17.125 11.25V11.1875L15.7188 9.90625C15.5625 9.75 15.5625 9.5 15.7188 9.375L16.3438 8.75C16.4688 8.59375 16.7188 8.59375 16.875 8.75L19.875 11.75C20.0312 11.9063 20.0312 12.125 19.875 12.2813L16.875 15.2813C16.7188 15.4375 16.4688 15.4375 16.3438 15.2813L15.7187 14.6563C15.5625 14.5313 15.5625 14.2813 15.7187 14.125L17.125 12.8125V12.75H12.75V17.1562H12.8125L14.0937 15.75C14.25 15.5938 14.5 15.5938 14.625 15.75L15.25 16.375C15.4062 16.5 15.4062 16.75 15.25 16.9062Z" fill="#939393"/>
</svg>
