<svg width="24" height="24" viewBox="0 0 24 24" fill="none" xmlns="http://www.w3.org/2000/svg">
<path d="M5.375 16.125L18.625 16.125C18.8437 16.125 19 16.2812 19 16.5L19 17.5C19 17.6875 18.8437 17.875 18.625 17.875L5.375 17.875C5.1875 17.875 5 17.6875 5 17.5L5 16.5C5 16.2813 5.1875 16.125 5.375 16.125ZM5.375 11.125L18.625 11.125C18.8437 11.125 19 11.2812 19 11.5L19 12.5C19 12.6875 18.8437 12.875 18.625 12.875L5.375 12.875C5.1875 12.875 5 12.6875 5 12.5L5 11.5C5 11.2813 5.1875 11.125 5.375 11.125ZM5.375 6.125L18.625 6.125C18.8437 6.125 19 6.28125 19 6.5L19 7.5C19 7.6875 18.8437 7.875 18.625 7.875L5.375 7.875C5.1875 7.875 5 7.6875 5 7.5L5 6.5C5 6.28125 5.1875 6.125 5.375 6.125Z" fill="#939393"/>
</svg>
