<svg width="24" height="24" viewBox="0 0 24 24" fill="none" xmlns="http://www.w3.org/2000/svg">
<path d="M15.5625 14.7812L16.5625 13.7812C16.7188 13.625 17 13.75 17 13.9688V18.5C17 19.3438 16.3125 20 15.5 20H4.5C3.65625 20 3 19.3438 3 18.5V7.5C3 6.6875 3.65625 6 4.5 6H13.0312C13.25 6 13.375 6.28125 13.2188 6.4375L12.2188 7.4375C12.1562 7.5 12.0938 7.5 12.0312 7.5H4.5V18.5H15.5V14.9688C15.5 14.9062 15.5 14.8438 15.5625 14.7812ZM20.4375 8.5L12.25 16.6875L9.40625 17C8.59375 17.0938 7.90625 16.4062 8 15.5938L8.3125 12.75L16.5 4.5625C17.2188 3.84375 18.375 3.84375 19.0938 4.5625L20.4375 5.90625C21.1562 6.625 21.1562 7.78125 20.4375 8.5ZM17.375 9.4375L15.5625 7.625L9.75 13.4375L9.5 15.5L11.5625 15.25L17.375 9.4375ZM19.375 6.96875L18.0312 5.625C17.9062 5.46875 17.6875 5.46875 17.5625 5.625L16.625 6.5625L18.4375 8.40625L19.4062 7.4375C19.5312 7.28125 19.5312 7.09375 19.375 6.96875Z" fill="white"/>
</svg>
