<svg width="24" height="24" viewBox="0 0 24 24" fill="none" xmlns="http://www.w3.org/2000/svg">
<path d="M12 14.25C10.7812 14.25 9.75 13.2188 9.75 12C9.75 10.75 10.7812 9.75 12 9.75C13.25 9.75 14.25 10.75 14.25 12C14.25 13.2188 13.25 14.25 12 14.25ZM12 11.25C11.5937 11.25 11.25 11.5625 11.25 12C11.25 12.4063 11.5937 12.75 12 12.75C12.4375 12.75 12.75 12.4063 12.75 12C12.75 11.5625 12.4375 11.25 12 11.25ZM6.5 14.25C5.28125 14.25 4.25 13.2188 4.25 12C4.25 10.75 5.28125 9.75 6.5 9.75C7.75 9.75 8.75 10.75 8.75 12C8.75 13.2188 7.75 14.25 6.5 14.25ZM6.5 11.25C6.09375 11.25 5.75 11.5625 5.75 12C5.75 12.4063 6.09375 12.75 6.5 12.75C6.9375 12.75 7.25 12.4063 7.25 12C7.25 11.5625 6.9375 11.25 6.5 11.25ZM17.5 14.25C16.2812 14.25 15.25 13.2188 15.25 12C15.25 10.75 16.2812 9.75 17.5 9.75C18.75 9.75 19.75 10.75 19.75 12C19.75 13.2188 18.75 14.25 17.5 14.25ZM17.5 11.25C17.0937 11.25 16.75 11.5625 16.75 12C16.75 12.4063 17.0937 12.75 17.5 12.75C17.9375 12.75 18.25 12.4063 18.25 12C18.25 11.5625 17.9375 11.25 17.5 11.25Z" fill="#E03638"/>
</svg>
