<svg width="34" height="34" viewBox="0 0 34 34" fill="none" xmlns="http://www.w3.org/2000/svg">
<path d="M17.0913 7.56738C17.2643 7.35104 17.6105 7.35104 17.8268 7.56738L26.8701 16.6107C27.0865 16.827 27.0865 17.1299 26.8701 17.3462L17.8268 26.3895C17.6105 26.6058 17.2643 26.6058 17.0913 26.3895L16.2259 25.5674C16.0095 25.351 16.0095 25.0049 16.2259 24.8318L22.9326 18.1251L8.13454 18.1251C7.87492 18.1251 7.61531 17.8655 7.61531 17.6058L7.61531 16.3943C7.61531 16.0914 7.87492 15.8751 8.13454 15.8751L22.9326 15.8751L16.2259 9.12508C16.0095 8.952 16.0095 8.60585 16.2259 8.3895L17.0913 7.56738Z" fill="white"/>
</svg>
