<svg width="24" height="24" viewBox="0 0 24 24" fill="none" xmlns="http://www.w3.org/2000/svg">
<path d="M20.8125 11.75C20.9062 11.8438 21 12 21 12.125C21 12.2188 20.9375 12.375 20.875 12.4375L20.5625 12.8438C20.4688 12.9375 20.2812 13.0313 20.1562 13.0313C20.0625 13.0313 19.9062 12.9688 19.8438 12.9063L19 12.1875V18.0312C18.9688 18.5625 18.5312 19 18 19H14C13.4375 19 13 18.5625 13 18V14.75H11L11 18C10.9687 18.5625 10.5312 19 10 19H6C5.4375 19 5 18.5625 5 18L5 12.1875L4.125 12.9062C4.0625 12.9688 3.90625 13 3.8125 13C3.6875 13 3.5 12.9375 3.4375 12.8438L3.09375 12.4375C3.03125 12.375 3 12.2188 3 12.125C3 12 3.0625 11.8438 3.15625 11.75L10.875 5.40625C11.125 5.1875 11.625 5.03125 12 5.03125C12.3438 5.03125 12.8438 5.1875 13.0938 5.40625L17.5 9.03125V7.25C17.5 7.125 17.5938 7.03125 17.75 7H18.75C18.875 7 19 7.125 19 7.25V10.25L20.8125 11.75ZM17.4688 17.5L17.5 10.9688L12 6.4375L6.5 10.9688L6.5 17.5H9.5L9.5 14.25C9.5 13.7188 9.9375 13.2812 10.5 13.25H13.5C14.0312 13.2813 14.4687 13.7188 14.5 14.25V17.5H17.4688Z" fill="#333333"/>
</svg>
