<svg width="24" height="24" viewBox="0 0 24 24" fill="none" xmlns="http://www.w3.org/2000/svg">
<path d="M18 17V17.5C18 18.3438 17.3125 19 16.5 19H4.5C3.65625 19 3 18.3438 3 17.5V9.5C3 8.6875 3.65625 8 4.5 8H5V9.5H4.6875C4.5625 9.5 4.5 9.59375 4.5 9.6875V17.3125C4.5 17.4375 4.5625 17.5 4.6875 17.5H16.3125C16.4062 17.5 16.5 17.4375 16.5 17.3125V17H18ZM19.3125 6.5H7.6875C7.5625 6.5 7.5 6.59375 7.5 6.6875V14.3125C7.5 14.4375 7.5625 14.5 7.6875 14.5H19.3125C19.4062 14.5 19.5 14.4375 19.5 14.3125V6.6875C19.5 6.59375 19.4062 6.5 19.3125 6.5ZM19.5 5C20.3125 5 21 5.6875 21 6.5V14.5C21 15.3438 20.3125 16 19.5 16H7.5C6.65625 16 6 15.3438 6 14.5V6.5C6 5.6875 6.65625 5 7.5 5H19.5ZM11.25 8.5C11.25 9.21875 10.6875 9.75 10 9.75C9.28125 9.75 8.75 9.21875 8.75 8.5C8.75 7.8125 9.28125 7.25 10 7.25C10.6875 7.25 11.25 7.8125 11.25 8.5ZM9 11.5L10.2188 10.2812C10.375 10.125 10.5938 10.125 10.75 10.2812L12 11.5L15.2188 8.28125C15.375 8.125 15.5938 8.125 15.75 8.28125L18 10.5V13H9V11.5Z" fill="white"/>
</svg>
