<svg width="31" height="31" viewBox="0 0 31 31" fill="none" xmlns="http://www.w3.org/2000/svg">
<path d="M11.0404 0H2.66491C1.19312 0 0 1.19312 0 2.66491V28.3351C0 29.8069 1.19312 31 2.66491 31H11.0404C12.5121 31 13.7053 29.8069 13.7053 28.3351V2.66491C13.7053 1.19312 12.5121 0 11.0404 0Z" fill="#007AFF"/>
<path d="M28.3351 0H19.9325C18.4607 0 17.2676 1.19312 17.2676 2.66491V10.986C17.2676 12.4578 18.4607 13.6509 19.9325 13.6509H28.3351C29.8069 13.6509 31 12.4578 31 10.986V2.66491C31 1.19312 29.8069 0 28.3351 0Z" fill="#007AFF"/>
<path d="M28.3078 17.2676H19.9051C18.4334 17.2676 17.2402 18.4607 17.2402 19.9325V28.3351C17.2402 29.8069 18.4334 31 19.9051 31H28.3078C29.7796 31 30.9727 29.8069 30.9727 28.3351V19.9325C30.9727 18.4607 29.7796 17.2676 28.3078 17.2676Z" fill="#007AFF"/>
</svg>
