<svg width="24" height="24" viewBox="0 0 24 24" fill="none" xmlns="http://www.w3.org/2000/svg">
<path d="M17.5 5C18.3125 5 19 5.6875 19 6.5V17.5C19 18.3438 18.3125 19 17.5 19H6.5C5.65625 19 5 18.3438 5 17.5L5 6.5C5 5.6875 5.65625 5 6.5 5L17.5 5ZM17.5 17.5V6.5L6.5 6.5L6.5 17.5H17.5ZM16.375 9.96875L10.9687 15.3125C10.8125 15.4688 10.5937 15.4688 10.4375 15.3125L7.59375 12.4375C7.46875 12.3125 7.46875 12.0625 7.59375 11.9062L8.3125 11.2188C8.46875 11.0625 8.6875 11.0625 8.84375 11.2188L10.7188 13.0938L15.125 8.71875C15.2812 8.5625 15.5312 8.5625 15.6562 8.71875L16.375 9.4375C16.5 9.59375 16.5 9.8125 16.375 9.96875Z" fill="#5B8930"/>
</svg>
