<svg width="28" height="28" viewBox="0 0 28 28" fill="none" xmlns="http://www.w3.org/2000/svg">
<path d="M21.7609 9.17197C22.0484 9.45947 22.3 9.99854 22.3 10.3938V20.0251C22.3 20.9954 21.5094 21.7501 20.575 21.7501H7.925C6.95469 21.7501 6.2 20.9954 6.2 20.0251V7.3751C6.2 6.44072 6.95469 5.6501 7.925 5.6501H17.5562C17.9516 5.6501 18.4906 5.90166 18.7781 6.18916L21.7609 9.17197ZM15.975 7.3751H11.375V10.2501H15.975V7.3751ZM20.3594 20.0251C20.4672 20.0251 20.575 19.9532 20.575 19.8095V10.5017C20.575 10.4298 20.5391 10.3938 20.5031 10.3579L17.7 7.51885V11.1126C17.7 11.6157 17.3047 11.9751 16.8375 11.9751H10.5125C10.0094 11.9751 9.65 11.6157 9.65 11.1126V7.3751H8.14062C7.99687 7.3751 7.925 7.48291 7.925 7.59072V19.8095C7.925 19.9532 7.99687 20.0251 8.14062 20.0251H20.3594ZM14.25 12.8376C15.975 12.8376 17.4125 14.2751 17.4125 16.0001C17.4125 17.761 15.975 19.1626 14.25 19.1626C12.4891 19.1626 11.0875 17.761 11.0875 16.0001C11.0875 14.2751 12.4891 12.8376 14.25 12.8376ZM14.25 17.4376C15.0406 17.4376 15.6875 16.8267 15.6875 16.0001C15.6875 15.2095 15.0406 14.5626 14.25 14.5626C13.4234 14.5626 12.8125 15.2095 12.8125 16.0001C12.8125 16.8267 13.4234 17.4376 14.25 17.4376Z" fill="white"/>
</svg>
