<svg width="37" height="37" viewBox="0 0 37 37" fill="none" xmlns="http://www.w3.org/2000/svg">
<path d="M26.8186 10.2068C29.2973 11.7969 30.8407 14.5095 30.8407 17.456C30.8407 20.4492 29.2973 23.1617 26.8186 24.7519C26.2574 25.0793 25.5558 24.8922 25.2752 24.3777C24.9478 23.8633 25.0881 23.1617 25.6026 22.8344C27.4734 21.6651 28.5958 19.6541 28.5958 17.456C28.5958 15.3046 27.4734 13.2935 25.6026 12.1243C25.0881 11.7969 24.9478 11.0954 25.2752 10.581C25.6026 10.0665 26.3041 9.87943 26.8186 10.2068ZM24.1995 13.9015C25.5091 14.6031 26.3509 16.0061 26.3509 17.456C26.3509 18.9526 25.5091 20.3556 24.1995 21.0571C23.6383 21.3845 22.9836 21.1975 22.6562 20.6362C22.3756 20.075 22.5626 19.4202 23.1239 19.0929C23.6851 18.7655 24.106 18.1575 24.106 17.456C24.106 16.8012 23.6851 16.1932 23.1239 15.8658C22.5626 15.5384 22.3756 14.8837 22.6562 14.3225C22.9836 13.7612 23.6383 13.5742 24.1995 13.9015ZM19.1953 8.47637C19.8033 8.47637 20.3645 8.94405 20.3645 9.64558V25.3131C20.3645 26.0146 19.8033 26.4355 19.1953 26.4355C18.9147 26.4355 18.6341 26.342 18.447 26.1082L14.2846 21.9458H9.51417C8.85941 21.9458 8.39172 21.4781 8.39172 20.8233V14.0886C8.39172 13.4806 8.85941 12.9662 9.51417 12.9662H14.2846L18.447 8.85051C18.6341 8.61667 18.9147 8.47637 19.1953 8.47637ZM18.1196 22.6473V12.3114L15.1732 15.2111H10.6366V19.7009H15.1732L18.1196 22.6473Z" fill="white"/>
</svg>
