<svg width="24" height="24" viewBox="0 0 24 24" fill="none" xmlns="http://www.w3.org/2000/svg">
<path d="M16.7812 5.25L20.2812 11.25C20.5625 11.7188 20.5625 12.3125 20.2812 12.7813L16.7812 18.7812C16.5 19.2188 16.0312 19.5 15.5 19.5H8.5C7.9375 19.5 7.46875 19.2188 7.1875 18.7812L3.6875 12.7812C3.40625 12.3125 3.40625 11.7188 3.6875 11.25L7.1875 5.25C7.46875 4.8125 7.9375 4.5 8.5 4.5L15.5 4.5C16.0312 4.5 16.5 4.8125 16.7812 5.25ZM15.5 18L19 12L15.5 6L8.5 6L5 12L8.5 18H15.5ZM15.1562 14.5L14.4687 15.1875C14.3125 15.3438 14.0625 15.3438 13.9375 15.1875L12 13.25L10.0312 15.1875C9.90625 15.3438 9.65625 15.3438 9.5 15.1875L8.8125 14.5C8.65625 14.3438 8.65625 14.0938 8.8125 13.9688L10.75 12L8.8125 10.0625C8.65625 9.9375 8.65625 9.6875 8.8125 9.53125L9.5 8.84375C9.65625 8.6875 9.90625 8.6875 10.0312 8.84375L12 10.7812L13.9375 8.84375C14.0625 8.6875 14.3125 8.6875 14.4688 8.84375L15.1562 9.53125C15.3125 9.6875 15.3125 9.9375 15.1562 10.0625L13.2187 12L15.1562 13.9688C15.3125 14.0938 15.3125 14.3438 15.1562 14.5Z" fill="#E03638"/>
</svg>
