<svg width="24" height="24" viewBox="0 0 24 24" fill="none" xmlns="http://www.w3.org/2000/svg">
<path d="M12.1562 18.8125C12.0312 18.9688 11.7812 18.9688 11.625 18.8125L5.09375 12.2812C4.9375 12.125 4.9375 11.9062 5.09375 11.75L11.625 5.21875C11.7812 5.0625 12.0312 5.0625 12.1562 5.21875L12.7812 5.8125C12.9375 5.96875 12.9375 6.21875 12.7812 6.34375L7.9375 11.1875L18.625 11.1875C18.8125 11.1875 19 11.375 19 11.5625V12.4375C19 12.6563 18.8125 12.8125 18.625 12.8125L7.9375 12.8125L12.7812 17.6875C12.9375 17.8125 12.9375 18.0625 12.7812 18.2188L12.1562 18.8125Z" fill="#007AFF"/>
</svg>
