<svg width="24" height="24" viewBox="0 0 24 24" fill="none" xmlns="http://www.w3.org/2000/svg">
<path d="M19 16C19 16.25 18.8125 16.4688 18.5938 16.5C18.4375 16.9062 18.4375 18.125 18.5938 18.5312C18.8125 18.5625 19 18.7812 19 19V19.5C19 19.7812 18.75 20 18.5 20H7.5C6.09375 20 5 18.9062 5 17.5V6.5C5 5.125 6.09375 4 7.5 4H18.5C18.75 4 19 4.25 19 4.5V16ZM17.3125 18.5C17.2188 17.9688 17.2188 17.0625 17.3125 16.5H7.5C6.9375 16.5 6.5 16.9688 6.5 17.5C6.5 18.0625 6.9375 18.5 7.5 18.5H17.3125ZM17.5 15V5.5H7.5C6.9375 5.5 6.5 5.96875 6.5 6.5V15.2188C6.78125 15.0938 7.125 15 7.5 15H17.5ZM12.6562 12.3438L11 11.5L12.6562 10.6875L13.5 9L14.3125 10.6875L16 11.5L14.3125 12.3438L13.5 14L12.6562 12.3438ZM10 10.25L9.40625 9.09375L8.25 8.5L9.40625 7.9375L10 6.75L10.5625 7.9375L11.75 8.5L10.5625 9.09375L10 10.25Z" fill="#333333"/>
</svg>
