<svg width="24" height="24" viewBox="0 0 24 24" fill="none" xmlns="http://www.w3.org/2000/svg">
<path d="M19.5 11.25C19.75 11.25 20 11.5 20 11.75V12.25C20 12.5312 19.75 12.75 19.5 12.75H10.5C10.2188 12.75 10 12.5312 10 12.25V11.75C10 11.5 10.2188 11.25 10.5 11.25H19.5ZM19.5 16.25C19.75 16.25 20 16.5 20 16.75V17.25C20 17.5312 19.75 17.75 19.5 17.75H10.5C10.2188 17.75 10 17.5312 10 17.25V16.75C10 16.5 10.2188 16.25 10.5 16.25H19.5ZM19.5 6.25C19.75 6.25 20 6.5 20 6.75V7.25C20 7.53125 19.75 7.75 19.5 7.75H10.5C10.2188 7.75 10 7.53125 10 7.25V6.75C10 6.5 10.2188 6.25 10.5 6.25H19.5ZM6 15.5C6.8125 15.5 7.5 16.1875 7.5 17C7.5 17.8438 6.8125 18.5 6 18.5C5.1875 18.5 4.5 17.8438 4.5 17C4.5 16.1875 5.1875 15.5 6 15.5ZM8.34375 10.125L8.875 10.6562C8.9375 10.7188 8.96875 10.8438 8.96875 10.9062C8.96875 11 8.9375 11.125 8.875 11.1875L6.625 13.4062L6.125 13.9062C6.0625 13.9688 5.9375 14 5.84375 14C5.75 14 5.65625 13.9688 5.59375 13.9062L4.09375 12.4375C4.03125 12.375 3.96875 12.25 3.96875 12.1562C3.96875 12.0938 4.03125 11.9688 4.09375 11.9062L4.59375 11.4062C4.65625 11.3438 4.75 11.3125 4.84375 11.3125C4.9375 11.3125 5.0625 11.3438 5.125 11.4062L5.8125 12.0938L7.8125 10.125C7.875 10.0625 8 10 8.09375 10C8.15625 10 8.28125 10.0625 8.34375 10.125ZM8.34375 5.125L8.875 5.625C8.9375 5.6875 9 5.8125 9 5.90625C9 6 8.9375 6.09375 8.875 6.15625L6.625 8.40625L6.125 8.90625C6.0625 8.96875 5.9375 9 5.84375 9C5.78125 9 5.65625 8.96875 5.59375 8.90625L4.09375 7.4375C4.03125 7.375 3.96875 7.25 3.96875 7.15625C3.96875 7.0625 4.03125 6.96875 4.09375 6.90625L4.59375 6.40625C4.65625 6.34375 4.75 6.3125 4.84375 6.3125C4.9375 6.3125 5.0625 6.34375 5.125 6.40625L5.8125 7.09375L7.8125 5.125C7.875 5.0625 8 5 8.09375 5C8.15625 5 8.28125 5.0625 8.34375 5.125Z" fill="white"/>
</svg>
