<svg width="24" height="24" viewBox="0 0 24 24" fill="none" xmlns="http://www.w3.org/2000/svg">
<path d="M10.625 17C10.8438 17 11 16.8438 11 16.625L11 9.875C11 9.6875 10.8438 9.5 10.625 9.5L9.875 9.5C9.6875 9.5 9.5 9.6875 9.5 9.875L9.5 16.625C9.5 16.8438 9.6875 17 9.875 17L10.625 17ZM5.5 6.5C5.25 6.5 5 6.75 5 7L5 7.5C5 7.78125 5.25 8 5.5 8L6 8L6 18.5C6 19.3438 6.6875 20 7.5 20L16.5 20C17.3438 20 18 19.3438 18 18.5L18 8L18.5 8C18.7813 8 19 7.78125 19 7.5L19 7C19 6.75 18.7813 6.5 18.5 6.5L15.9375 6.5L14.875 4.75C14.625 4.34375 14.0625 4 13.5938 4L10.4375 4C9.96875 4 9.40625 4.34375 9.15625 4.75L8.09375 6.5L5.5 6.5ZM13.6563 5.59375L14.1875 6.5L9.84375 6.5L10.375 5.59375C10.4063 5.5625 10.5 5.5 10.5313 5.5L13.4688 5.5L13.5 5.5C13.5313 5.5 13.625 5.5625 13.6563 5.59375ZM7.5 18.5L7.5 8L16.5 8L16.5 18.5L7.5 18.5ZM14.125 17C14.3438 17 14.5 16.8438 14.5 16.625L14.5 9.875C14.5 9.6875 14.3438 9.5 14.125 9.5L13.375 9.5C13.1875 9.5 13 9.6875 13 9.875L13 16.625C13 16.8438 13.1875 17 13.375 17L14.125 17Z" fill="#E03638"/>
</svg>
