<svg width="24" height="24" viewBox="0 0 24 24" fill="none" xmlns="http://www.w3.org/2000/svg">
<path d="M9.21875 8.4375L10.2187 7.4375C10.375 7.28125 10.25 7 10.0312 7L5.5 7C4.65625 7 4 7.6875 4 8.5L4 19.5C4 20.3438 4.65625 21 5.5 21L16.5 21C17.3125 21 18 20.3438 18 19.5L18 10.9688C18 10.75 17.7187 10.625 17.5625 10.7813L16.5625 11.7813C16.5 11.8438 16.5 11.9063 16.5 11.9688L16.5 19.5L5.5 19.5L5.5 8.5L9.03125 8.5C9.09375 8.5 9.15625 8.5 9.21875 8.4375ZM15.5 3.5625L7.3125 11.75L7 14.5938C6.90625 15.4063 7.59375 16.0938 8.40625 16L11.25 15.6875L19.4375 7.5C20.1562 6.78125 20.1562 5.625 19.4375 4.90625L18.0937 3.5625C17.375 2.84375 16.2187 2.84375 15.5 3.5625ZM14.5625 6.625L16.375 8.4375L10.5625 14.25L8.5 14.5L8.75 12.4375L14.5625 6.625ZM17.0312 4.625L18.375 5.96875C18.5312 6.09375 18.5312 6.3125 18.375 6.4375L17.4375 7.375L15.5937 5.5625L16.5625 4.59375C16.7187 4.46875 16.9062 4.46875 17.0312 4.625Z" fill="#333333"/>
</svg>
