<svg width="24" height="24" viewBox="0 0 24 24" fill="none" xmlns="http://www.w3.org/2000/svg">
<path d="M21.8125 5.28125C21.9063 5.1875 22 5 22 4.875C22 4.78125 21.9375 4.625 21.875 4.5625L21.5625 4.1875C21.4688 4.0625 21.3125 4 21.1875 4C21.0625 4 20.9375 4.03125 20.875 4.09375L2.1875 18.7188C2.0625 18.7812 1.96875 18.9688 1.96875 19.0938C1.96875 19.1875 2.03125 19.3438 2.09375 19.4062L2.40625 19.8125C2.5 19.9062 2.65625 20 2.8125 20C2.90625 20 3.03125 19.9375 3.125 19.875L21.8125 5.28125ZM11.25 15.4063C11.4688 15.4375 11.7812 15.4688 12 15.5C13.875 15.5 15.4063 14 15.4688 12.125L11.25 15.4063ZM12.7188 8.5625C12.5 8.53125 12.1875 8.5 12 8.5C10.0938 8.5 8.5625 9.96875 8.5 11.8438L12.7188 8.5625ZM12 16.5C11.375 16.5 10.75 16.4062 10.1562 16.25L8.71875 17.4062C9.75 17.7812 10.8438 18 12 18C15.8125 18 19.1875 15.75 20.875 12.4375C20.9375 12.3125 21 12.125 21 12C21 11.8438 20.9375 11.6563 20.875 11.5313C20.5 10.8125 19.7812 9.78125 19.2188 9.1875L18.0312 10.0938C18.5 10.5625 19.0938 11.4063 19.4062 12C17.9062 14.7813 15.0625 16.5 12 16.5ZM12 7.5C12.5938 7.5 13.2188 7.5625 13.8125 7.71875L15.25 6.5625C14.2188 6.21875 13.125 6 12 6C8.15625 6 4.78125 8.21875 3.09375 11.5312C3.03125 11.6562 3 11.8438 3 11.9688C3 12.125 3.03125 12.3125 3.09375 12.4375C3.46875 13.1562 4.1875 14.1875 4.75 14.7812L5.9375 13.875C5.46875 13.4062 4.875 12.5625 4.5625 12C6.0625 9.21875 8.90625 7.5 12 7.5Z" fill="#333333"/>
</svg>
