<svg width="65" height="14" viewBox="0 0 65 14" fill="none" xmlns="http://www.w3.org/2000/svg">
<path d="M12.1856 7.43262H8.56853C7.93498 7.43262 7.42139 7.94621 7.42139 8.57976V12.1968C7.42139 12.8303 7.93498 13.3439 8.56853 13.3439H12.1856C12.8191 13.3439 13.3327 12.8303 13.3327 12.1968V8.57976C13.3327 7.94621 12.8191 7.43262 12.1856 7.43262Z" fill="#007AFF"/>
<path d="M12.1973 0H8.58025C7.9467 0 7.43311 0.513596 7.43311 1.14715V4.72906C7.43311 5.36261 7.9467 5.87621 8.58025 5.87621H12.1973C12.8308 5.87621 13.3444 5.36261 13.3444 4.72906V1.14715C13.3444 0.513596 12.8308 0 12.1973 0Z" fill="#007AFF"/>
<path d="M4.75247 0H1.14715C0.513596 0 0 0.513596 0 1.14715V12.1972C0 12.8308 0.513596 13.3444 1.14715 13.3444H4.75247C5.38602 13.3444 5.89962 12.8308 5.89962 12.1972V1.14715C5.89962 0.513596 5.38602 0 4.75247 0Z" fill="#007AFF"/>
<path d="M23.3017 7.2427H22.2066V10H20.6324V3.15563H22.2066V5.92271H23.3408L25.1399 3.15563H26.8119L24.5728 6.46048L26.8803 10H25.0812L23.3017 7.2427ZM29.5963 4.66139C30.4111 4.66139 31.0369 4.85694 31.4736 5.24805C31.9103 5.63264 32.1287 6.21604 32.1287 6.99825V10H30.7012V9.3449C30.4143 9.83378 29.8798 10.0782 29.0976 10.0782C28.6935 10.0782 28.3415 10.0098 28.0416 9.87289C27.7483 9.736 27.5234 9.54697 27.367 9.30579C27.2105 9.0646 27.1323 8.79083 27.1323 8.48446C27.1323 7.99558 27.3148 7.61099 27.6799 7.3307C28.0514 7.0504 28.6218 6.91025 29.391 6.91025H30.6034C30.6034 6.57781 30.5023 6.32359 30.3003 6.1476C30.0982 5.96508 29.7951 5.87382 29.391 5.87382C29.1107 5.87382 28.8336 5.91945 28.5599 6.01071C28.2926 6.09545 28.0644 6.21278 27.8754 6.36271L27.3279 5.29694C27.6147 5.09487 27.9569 4.93842 28.3545 4.82761C28.7587 4.7168 29.1726 4.66139 29.5963 4.66139ZM29.479 9.05157C29.7397 9.05157 29.9711 8.9929 30.1732 8.87557C30.3752 8.75172 30.5186 8.57246 30.6034 8.3378V7.80002H29.5572C28.9314 7.80002 28.6185 8.00535 28.6185 8.41602C28.6185 8.61157 28.6935 8.76801 28.8434 8.88535C28.9998 8.99616 29.2117 9.05157 29.479 9.05157ZM33.4537 4.73961H34.9693V7.86847L37.531 4.73961H38.9292V10H37.4137V6.87114L34.8617 10H33.4537V4.73961ZM36.0937 4.17251C34.9465 4.17251 34.3696 3.66733 34.3631 2.65697H35.3604C35.3669 2.88511 35.4288 3.06437 35.5462 3.19474C35.67 3.31859 35.8493 3.38051 36.0839 3.38051C36.3186 3.38051 36.4978 3.31859 36.6217 3.19474C36.7521 3.06437 36.8172 2.88511 36.8172 2.65697H37.8341C37.8276 3.66733 37.2475 4.17251 36.0937 4.17251ZM46.2914 8.74846V11.1342H44.8737V10H41.1777V11.1342H39.7599V8.74846H39.9751C40.301 8.74194 40.5259 8.54964 40.6497 8.17157C40.7736 7.7935 40.8518 7.25573 40.8844 6.55826L40.9528 4.73961H45.5386V8.74846H46.2914ZM42.263 6.66581C42.2435 7.20033 42.2011 7.63706 42.1359 7.97602C42.0773 8.31498 41.9632 8.57246 41.7937 8.74846H44.0132V5.99115H42.2924L42.263 6.66581ZM50.616 7.26225C50.9289 7.36003 51.1701 7.50995 51.3395 7.71202C51.5155 7.9141 51.6035 8.15528 51.6035 8.43557C51.6035 8.76801 51.4895 9.06134 51.2613 9.31556C51.0332 9.56326 50.7203 9.75556 50.3227 9.89245C49.925 10.0293 49.4753 10.0978 48.9733 10.0978C48.5627 10.0978 48.1585 10.0554 47.7609 9.97067C47.3633 9.88593 46.995 9.75882 46.656 9.58934L47.0667 8.52357C47.6208 8.79083 48.2335 8.92446 48.9049 8.92446C49.2634 8.92446 49.5437 8.87231 49.7458 8.76801C49.9544 8.6572 50.0587 8.50402 50.0587 8.30846C50.0587 8.13898 49.987 8.01187 49.8436 7.92713C49.7001 7.83587 49.4916 7.79025 49.2178 7.79025H48.1422V6.84181H49.0809C49.3482 6.84181 49.5535 6.79944 49.6969 6.7147C49.8403 6.62996 49.912 6.50611 49.912 6.34315C49.912 6.17367 49.8207 6.0433 49.6382 5.95204C49.4622 5.86078 49.208 5.81516 48.8756 5.81516C48.3671 5.81516 47.8131 5.93575 47.2134 6.17693L46.8418 5.12094C47.5719 4.80154 48.2824 4.64183 48.9733 4.64183C49.4492 4.64183 49.8729 4.7005 50.2444 4.81783C50.6225 4.93516 50.9191 5.1079 51.1342 5.33605C51.3493 5.55768 51.4569 5.81841 51.4569 6.11826C51.4569 6.36596 51.3819 6.59085 51.232 6.79292C51.0821 6.98848 50.8767 7.14492 50.616 7.26225ZM54.4926 4.64183C55.0597 4.64183 55.5649 4.75917 56.0081 4.99383C56.4579 5.22198 56.8099 5.54464 57.0641 5.96182C57.3184 6.379 57.4455 6.84833 57.4455 7.36981C57.4455 7.89128 57.3184 8.36061 57.0641 8.77779C56.8099 9.19497 56.4579 9.52089 56.0081 9.75556C55.5649 9.9837 55.0597 10.0978 54.4926 10.0978C53.9907 10.0978 53.5344 10.0163 53.1237 9.85333C52.7196 9.68386 52.3839 9.44267 52.1166 9.12979L52.9868 8.30846C53.3845 8.71912 53.8668 8.92446 54.4339 8.92446C54.812 8.92446 55.1379 8.82994 55.4117 8.6409C55.6855 8.45187 55.8713 8.19439 55.969 7.86847H53.7593V6.82226H55.9495C55.8452 6.50937 55.6594 6.26167 55.3922 6.07915C55.1249 5.89664 54.8055 5.80538 54.4339 5.80538C53.8734 5.80538 53.391 6.01397 52.9868 6.43115L52.1166 5.6196C52.3839 5.3002 52.7196 5.05902 53.1237 4.89605C53.5344 4.72657 53.9907 4.64183 54.4926 4.64183ZM58.4804 4.73961H59.9959V6.79292H62.2839V4.73961H63.8092V10H62.2839V8.03469H59.9959V10H58.4804V4.73961Z" fill="#181818"/>
</svg>
