<svg width="150" height="31" viewBox="0 0 150 31" fill="none" xmlns="http://www.w3.org/2000/svg">
<path d="M54.1317 15.5946H51.5877V22H47.9307V6.1H51.5877V12.5281H54.2226L58.402 6.1H62.2861L57.0846 13.7774L62.4451 22H58.2657L54.1317 15.5946ZM68.7546 9.598C70.6474 9.598 72.1011 10.0523 73.1157 10.9609C74.1303 11.8543 74.6376 13.2096 74.6376 15.0267V22H71.3213V20.4781C70.655 21.6139 69.4133 22.1817 67.5961 22.1817C66.6573 22.1817 65.8396 22.0227 65.143 21.7047C64.4616 21.3867 63.9391 20.9476 63.5757 20.3873C63.2123 19.827 63.0306 19.191 63.0306 18.4793C63.0306 17.3436 63.4546 16.4501 64.3026 15.799C65.1657 15.1479 66.4907 14.8223 68.2776 14.8223H71.0941C71.0941 14.05 70.8594 13.4594 70.39 13.0506C69.9206 12.6266 69.2164 12.4146 68.2776 12.4146C67.6264 12.4146 66.9829 12.5206 66.3469 12.7326C65.726 12.9294 65.196 13.202 64.7569 13.5503L63.4849 11.0744C64.1511 10.605 64.9461 10.2416 65.8699 9.98414C66.8087 9.72671 67.7703 9.598 68.7546 9.598ZM68.482 19.7967C69.0877 19.7967 69.6253 19.6604 70.0947 19.3879C70.5641 19.1001 70.8973 18.6837 71.0941 18.1386V16.8893H68.6637C67.21 16.8893 66.4831 17.3663 66.4831 18.3203C66.4831 18.7746 66.6573 19.138 67.0056 19.4106C67.369 19.668 67.8611 19.7967 68.482 19.7967ZM77.7157 9.77971H81.2364V17.0483L87.1876 9.77971H90.4357V22H86.915V14.7314L80.9866 22H77.7157V9.77971ZM83.8486 8.46228C81.1834 8.46228 79.8433 7.28871 79.8281 4.94157H82.145C82.1601 5.47157 82.304 5.888 82.5766 6.19086C82.8643 6.47857 83.2807 6.62243 83.8259 6.62243C84.371 6.62243 84.7874 6.47857 85.0751 6.19086C85.378 5.888 85.5294 5.47157 85.5294 4.94157H87.8917C87.8766 7.28871 86.5289 8.46228 83.8486 8.46228ZM107.539 19.0926V24.6349H104.245V22H95.6591V24.6349H92.3655V19.0926H92.8653C93.6224 19.0774 94.1448 18.6307 94.4325 17.7524C94.7203 16.8741 94.902 15.6249 94.9777 14.0046L95.1367 9.77971H105.79V19.0926H107.539ZM98.1804 14.2544C98.135 15.4961 98.0365 16.5107 97.8851 17.2981C97.7488 18.0856 97.4838 18.6837 97.0901 19.0926H102.246V12.6871H98.2485L98.1804 14.2544ZM117.585 15.64C118.312 15.8671 118.872 16.2154 119.266 16.6849C119.675 17.1543 119.879 17.7146 119.879 18.3657C119.879 19.138 119.614 19.8194 119.084 20.41C118.554 20.9854 117.827 21.4321 116.904 21.7501C115.98 22.0681 114.935 22.2271 113.769 22.2271C112.815 22.2271 111.876 22.1287 110.952 21.9319C110.029 21.735 109.173 21.4397 108.386 21.046L109.34 18.5701C110.627 19.191 112.05 19.5014 113.61 19.5014C114.443 19.5014 115.094 19.3803 115.563 19.138C116.048 18.8806 116.29 18.5247 116.29 18.0704C116.29 17.6767 116.124 17.3814 115.791 17.1846C115.457 16.9726 114.973 16.8666 114.337 16.8666H111.838V14.6633H114.019C114.64 14.6633 115.117 14.5649 115.45 14.368C115.783 14.1711 115.95 13.8834 115.95 13.5049C115.95 13.1111 115.738 12.8083 115.314 12.5963C114.905 12.3843 114.314 12.2783 113.542 12.2783C112.361 12.2783 111.074 12.5584 109.68 13.1187L108.817 10.6656C110.513 9.92357 112.164 9.55257 113.769 9.55257C114.874 9.55257 115.859 9.68886 116.722 9.96143C117.6 10.234 118.289 10.6353 118.789 11.1653C119.289 11.6801 119.538 12.2859 119.538 12.9824C119.538 13.5579 119.364 14.0803 119.016 14.5497C118.668 15.004 118.191 15.3674 117.585 15.64ZM126.591 9.55257C127.908 9.55257 129.082 9.82514 130.111 10.3703C131.156 10.9003 131.974 11.6499 132.565 12.619C133.155 13.5881 133.45 14.6784 133.45 15.8899C133.45 17.1013 133.155 18.1916 132.565 19.1607C131.974 20.1299 131.156 20.887 130.111 21.4321C129.082 21.9621 127.908 22.2271 126.591 22.2271C125.425 22.2271 124.365 22.0379 123.411 21.6593C122.472 21.2656 121.692 20.7053 121.071 19.9784L123.093 18.0704C124.016 19.0244 125.137 19.5014 126.454 19.5014C127.333 19.5014 128.09 19.2819 128.726 18.8427C129.362 18.4036 129.793 17.8054 130.021 17.0483H124.887V14.6179H129.975C129.733 13.891 129.301 13.3156 128.68 12.8916C128.06 12.4676 127.318 12.2556 126.454 12.2556C125.152 12.2556 124.032 12.7401 123.093 13.7093L121.071 11.824C121.692 11.082 122.472 10.5217 123.411 10.1431C124.365 9.74943 125.425 9.55257 126.591 9.55257ZM135.855 9.77971H139.375V14.5497H144.69V9.77971H148.234V22H144.69V17.4344H139.375V22H135.855V9.77971Z" fill="#181818"/>
<path d="M11.0404 0H2.66491C1.19312 0 0 1.19312 0 2.66491V28.3351C0 29.8069 1.19312 31 2.66491 31H11.0404C12.5121 31 13.7053 29.8069 13.7053 28.3351V2.66491C13.7053 1.19312 12.5121 0 11.0404 0Z" fill="#007AFF"/>
<path d="M28.3351 0H19.9325C18.4607 0 17.2676 1.19312 17.2676 2.66491V10.986C17.2676 12.4578 18.4607 13.6509 19.9325 13.6509H28.3351C29.8069 13.6509 31 12.4578 31 10.986V2.66491C31 1.19312 29.8069 0 28.3351 0Z" fill="#007AFF"/>
<path d="M28.3078 17.2676H19.9051C18.4334 17.2676 17.2402 18.4607 17.2402 19.9325V28.3351C17.2402 29.8069 18.4334 31 19.9051 31H28.3078C29.7796 31 30.9727 29.8069 30.9727 28.3351V19.9325C30.9727 18.4607 29.7796 17.2676 28.3078 17.2676Z" fill="#007AFF"/>
</svg>
