<svg width="24" height="24" viewBox="0 0 24 24" fill="none" xmlns="http://www.w3.org/2000/svg">
<path d="M20 4.46875C20 4.21875 19.7812 4 19.5312 4L14.4375 4.03125C14.1875 4.03125 14 4.21875 14 4.46875L14 5.5C14 5.75 14.1875 5.96875 14.4375 5.96875L16.75 5.875L16.8125 5.9375L8.09375 14.6563C8.03125 14.7188 7.96875 14.8438 7.96875 14.9063C7.96875 15 8.03125 15.125 8.09375 15.1875L8.8125 15.9063C8.875 15.9688 9 16.0313 9.09375 16.0313C9.15625 16.0313 9.28125 15.9688 9.34375 15.9063L18.0625 7.1875L18.125 7.25L18.0312 9.5625C18.0312 9.8125 18.25 10 18.5 10L19.5312 10C19.7812 10 19.9687 9.8125 19.9687 9.5625L20 4.46875ZM11 6.5C11 6.25 10.75 6 10.5 6L5.5 6C4.65625 6 4 6.6875 4 7.5L4 18.5C4 19.3438 4.65625 20 5.5 20L16.5 20C17.3125 20 18 19.3438 18 18.5L18 13.5C18 13.25 17.75 13 17.5 13L17 13C16.7187 13 16.5 13.25 16.5 13.5L16.5 18.3125C16.5 18.4375 16.4062 18.5 16.3125 18.5L5.6875 18.5C5.5625 18.5 5.5 18.4375 5.5 18.3125L5.5 7.6875C5.5 7.59375 5.5625 7.5 5.6875 7.5L10.5 7.5C10.75 7.5 11 7.28125 11 7L11 6.5Z" fill="white"/>
</svg>
