<svg width="36" height="36" viewBox="0 0 36 36" fill="none" xmlns="http://www.w3.org/2000/svg">
<path d="M17.5 8.03846C12.6971 8.03846 8.84615 11.9327 8.84615 16.6923C8.84615 21.4952 12.6971 25.3462 17.5 25.3462C22.2596 25.3462 26.1538 21.4952 26.1538 16.6923C26.1538 11.9327 22.2596 8.03846 17.5 8.03846ZM17.5 5.96154C23.3846 5.96154 28.2308 10.8077 28.2308 16.6923C28.2308 22.6202 23.3846 27.4231 17.5 27.4231C11.5721 27.4231 6.76923 22.6202 6.76923 16.6923C6.76923 10.8077 11.5721 5.96154 17.5 5.96154ZM17.5 13.2308C19.4038 13.2308 20.9615 14.7885 20.9615 16.6923C20.9615 18.6394 19.4038 20.1538 17.5 20.1538C15.5529 20.1538 14.0385 18.6394 14.0385 16.6923C14.0385 14.7885 15.5529 13.2308 17.5 13.2308Z" fill="#333333"/>
</svg>
