<svg width="34" height="34" viewBox="0 0 34 34" fill="none" xmlns="http://www.w3.org/2000/svg">
<path d="M27.0384 12.5963C28.1634 12.7693 28.5961 14.154 27.774 14.9761L23.2307 19.4328L24.3125 25.7068C24.4855 26.8318 23.274 27.6972 22.2788 27.178L16.6538 24.1924L10.9855 27.178C9.99035 27.6972 8.77881 26.8318 8.95189 25.7068L10.0336 19.4328L5.49035 14.9761C4.66823 14.154 5.10092 12.7693 6.22592 12.5963L12.5865 11.6876L15.399 5.9328C15.9182 4.89434 17.3894 4.93761 17.8653 5.9328L20.7211 11.6876L27.0384 12.5963ZM20.9807 18.6972L25.3509 14.4568L19.3365 13.5915L16.6538 8.13954L13.9278 13.5915L7.91342 14.4568L12.2836 18.6972L11.2452 24.6684L16.6538 21.8559L22.0192 24.6684L20.9807 18.6972Z" fill="#939393"/>
</svg>
