<svg width="34" height="34" viewBox="0 0 34 34" fill="none" xmlns="http://www.w3.org/2000/svg">
<path d="M16.1392 8.33643C15.9661 8.12008 15.62 8.12008 15.4036 8.33643L6.36035 17.3797C6.14401 17.596 6.14401 17.8989 6.36035 18.1153L15.4036 27.1585C15.62 27.3749 15.9661 27.3749 16.1392 27.1585L17.0046 26.3364C17.2209 26.1201 17.2209 25.7739 17.0046 25.6009L10.2979 18.8941L25.0959 18.8941C25.3555 18.8941 25.6152 18.6345 25.6152 18.3749L25.6152 17.1634C25.6152 16.8605 25.3555 16.6441 25.0959 16.6441L10.2979 16.6441L17.0046 9.89412C17.2209 9.72104 17.2209 9.37489 17.0046 9.15854L16.1392 8.33643Z" fill="#181818"/>
</svg>
