<svg width="24" height="24" viewBox="0 0 24 24" fill="none" xmlns="http://www.w3.org/2000/svg">
<path d="M15.625 11.125C15.8437 11.125 16 11.2813 16 11.5L16 12.5C16 12.6875 15.8437 12.875 15.625 12.875L8.375 12.875C8.1875 12.875 8 12.6875 8 12.5L8 11.5C8 11.2813 8.1875 11.125 8.375 11.125L15.625 11.125ZM4.25 12C4.25 7.71875 7.71875 4.25 12 4.25C16.2812 4.25 19.75 7.71875 19.75 12C19.75 16.2813 16.2812 19.75 12 19.75C7.71875 19.75 4.25 16.2813 4.25 12ZM5.75 12C5.75 15.4375 8.5625 18.25 12 18.25C15.4687 18.25 18.25 15.4375 18.25 12C18.25 8.53125 15.4687 5.75 12 5.75C8.5625 5.75 5.75 8.53125 5.75 12Z" fill="#5B8930"/>
</svg>
