<svg width="64" height="64" viewBox="0 0 64 64" fill="none" xmlns="http://www.w3.org/2000/svg">
<path d="M24.2843 5.18945H9.79708C7.25128 5.18945 5.1875 7.25323 5.1875 9.79903V54.2015C5.1875 56.7473 7.25128 58.8111 9.79708 58.8111H24.2843C26.8301 58.8111 28.8939 56.7473 28.8939 54.2015V9.79903C28.8939 7.25323 26.8301 5.18945 24.2843 5.18945Z" fill="#007AFF"/>
<path d="M54.2025 5.18945H39.6682C37.1224 5.18945 35.0586 7.25323 35.0586 9.79903V24.1922C35.0586 26.738 37.1224 28.8018 39.6682 28.8018H54.2025C56.7483 28.8018 58.812 26.738 58.812 24.1922V9.79903C58.812 7.25323 56.7483 5.18945 54.2025 5.18945Z" fill="#007AFF"/>
<path d="M54.1556 35.0576H39.6213C37.0755 35.0576 35.0117 37.1214 35.0117 39.6672V54.2015C35.0117 56.7473 37.0755 58.8111 39.6213 58.8111H54.1556C56.7014 58.8111 58.7652 56.7473 58.7652 54.2015V39.6672C58.7652 37.1214 56.7014 35.0576 54.1556 35.0576Z" fill="#007AFF"/>
</svg>
